# xmcd
#
# Track frame offsets:
# 150
# 11468
# 28299
# 38362
# 51366
# 61701
# 83008
# 102671
#
# Disc length: 1677 seconds
#
#
# Revision: 0
# Processed by: cddbd v1.5.1PL2 Copyright (c) Steve Scherf et al.
# Submitted via: FreeRIP 2.91 
#
DISCID=5a068b08
DTITLE=Joe Tackett - Guaranteed Country
DYEAR=1900
DGENRE=Country
TTITLE0=Green Broke Mule
TTITLE1=All Over Again
TTITLE2=Truckers Nightmare
TTITLE3=Closing Time
TTITLE4=I Sure Miss Arkansas
TTITLE5=Trying To Keep The Wolf From The Door
TTITLE6=Rio Or Modesto
TTITLE7=Roses In Alaska
EXTD=
EXTT0=
EXTT1=
EXTT2=
EXTT3=
EXTT4=
EXTT5=
EXTT6=
EXTT7=
PLAYORDER=
